<svg width="326" height="800" viewBox="0 0 326 800" xmlns="http://www.w3.org/2000/svg">
<path d="M242.713 181.357C255.021 181.357 266.347 183.733 276.697 188.489C307.415 203.951 325.553 233.337 325.784 266.105V491.82C320.022 527.703 278.951 517.945 277.956 491.82V278.691C274.296 266.537 250.827 271.577 250.266 278.691V767.881C244.299 817.833 179.751 803.171 178.105 767.043C178.105 667.191 178.105 567.337 178.105 467.487C173.977 448.165 146.814 456.945 146.219 468.326C147.371 567.895 147.058 667.469 147.058 767.043C140.621 816.738 76.3867 804.023 74.896 767.881L74.0573 278.691C70.2953 266.799 48.5487 271.361 48.0447 278.691V491.82C42.282 527.703 1.21134 517.945 0.216675 491.82V266.105C0.797341 234.734 12.2947 203.307 39.654 188.489C48.6047 183.733 59.5127 181.356 72.3787 181.356C129.157 181.357 185.935 181.357 242.713 181.357ZM241.867 78.8513C241.867 122.4 206.564 157.703 163.015 157.703C119.467 157.703 84.164 122.4 84.164 78.8513C84.1633 35.3033 119.467 -1.52588e-05 163.014 -1.52588e-05C206.564 -1.52588e-05 241.867 35.3033 241.867 78.8513Z"/>
</svg>
